<?xml version="1.0" encoding="UTF-8" standalone="no" ?>
<!DOCTYPE svg PUBLIC "-//W3C//DTD SVG 1.1//EN" "http://www.w3.org/Graphics/SVG/1.1/DTD/svg11.dtd">
<svg xmlns="http://www.w3.org/2000/svg" xmlns:xlink="http://www.w3.org/1999/xlink" version="1.1" width="570.6721219267141" height="436.5044106807089" viewBox="33.62249207190524 125.89090925473428 570.6721219267141 436.5044106807089" xml:space="preserve">
<desc>Created with Fabric.js 5.3.0</desc>
<defs>
</defs>
<g transform="matrix(1.0064635216 -0.55789184 0.1032464873 0.1862615937 257.945711867 415.6334640175)" id="ltPbvuAQ8fhZs6ubstWom"  >
<path style="stroke: rgb(57,95,208); stroke-width: 0; stroke-dasharray: none; stroke-linecap: butt; stroke-dashoffset: 0; stroke-linejoin: miter; stroke-miterlimit: 4; fill: rgb(255,139,7); fill-rule: nonzero; opacity: 1;"  transform=" translate(0, 0)" d="M -35.19348 -35.19348 L 35.19348 -35.19348 L 35.19348 35.19348 L -35.19348 35.19348 z" stroke-linecap="round" />
</g>
<g transform="matrix(1.0743122252 0.4123898256 -0.076319096 0.1988180424 252.0308187697 289.0862273102)" id="Zdk6U7on9gmoz22ZyLfBI"  >
<path style="stroke: rgb(57,95,208); stroke-width: 0; stroke-dasharray: none; stroke-linecap: butt; stroke-dashoffset: 0; stroke-linejoin: miter; stroke-miterlimit: 4; fill: rgb(255,139,7); fill-rule: nonzero; opacity: 1;"  transform=" translate(0, 0)" d="M -35.19348 -35.19348 L 35.19348 -35.19348 L 35.19348 35.19348 L -35.19348 35.19348 z" stroke-linecap="round" />
</g>
<g transform="matrix(0.1601526334 1.1395451985 -0.21089041 0.0296387143 157.1285645374 362.6030348887)" id="Jm6hNq7cCSswQMASj-n93"  >
<path style="stroke: rgb(57,95,208); stroke-width: 0; stroke-dasharray: none; stroke-linecap: butt; stroke-dashoffset: 0; stroke-linejoin: miter; stroke-miterlimit: 4; fill: rgb(255,139,7); fill-rule: nonzero; opacity: 1;"  transform=" translate(0, 0)" d="M -35.19348 -35.19348 L 35.19348 -35.19348 L 35.19348 35.19348 L -35.19348 35.19348 z" stroke-linecap="round" />
</g>
<g transform="matrix(1.215831237 0 0 1.215831237 432.7893624409 349.8720401991)" id="pNZqjltyI7oKw8vIKZhK1"  >
<radialGradient id="SVGID_558" gradientUnits="userSpaceOnUse" gradientTransform="matrix(1 0 0 1 -135.56008 -135.56008)"  cx="103.9338663260115" cy="93.50070601250906" r="124.99156808594938" fx="103.9338663260115" fy="93.50070601250906">
<stop offset="0%" style="stop-color:#FFDFAE;stop-opacity: 1"/>
<stop offset="53.58113136108622%" style="stop-color:#FFD289;stop-opacity: 1"/>
<stop offset="100%" style="stop-color:#FFC468;stop-opacity: 1"/>
</radialGradient>
<path style="stroke: rgb(255,139,7); stroke-width: 11; stroke-dasharray: none; stroke-linecap: butt; stroke-dashoffset: 0; stroke-linejoin: miter; stroke-miterlimit: 4; fill: url(#SVGID_558); fill-rule: nonzero; opacity: 1;"  transform=" translate(0, 0)" d="M 0 -135.56008 C 74.82916 -135.56008 135.56008 -74.82916 135.56008 0 C 135.56008 74.82916 74.82916 135.56008 0 135.56008 C -74.82916 135.56008 -135.56008 74.82916 -135.56008 0 C -135.56008 -74.82916 -74.82916 -135.56008 0 -135.56008 z" stroke-linecap="round" />
</g>
<g transform="matrix(0.673933135 0 0 0.673933135 174.412913623 464.6345247169)" id="SUWcbI03ITr5vNbJoXQXu"  >
<radialGradient id="SVGID_560" gradientUnits="userSpaceOnUse" gradientTransform="matrix(1 0 0 1 -135.560081101 -135.560081101)"  cx="103.9338663260115" cy="93.50070601250906" r="124.99156808594938" fx="103.9338663260115" fy="93.50070601250906">
<stop offset="0%" style="stop-color:#FFDFAE;stop-opacity: 1"/>
<stop offset="53.58113136108622%" style="stop-color:#FFD289;stop-opacity: 1"/>
<stop offset="100%" style="stop-color:#FFC468;stop-opacity: 1"/>
</radialGradient>
<path style="stroke: rgb(255,139,7); stroke-width: 19; stroke-dasharray: none; stroke-linecap: butt; stroke-dashoffset: 0; stroke-linejoin: miter; stroke-miterlimit: 4; fill: url(#SVGID_560); fill-rule: nonzero; opacity: 1;"  transform=" translate(0, 0)" d="M 0 -135.56008 C 74.82916 -135.56008 135.56008 -74.82916 135.56008 0 C 135.56008 74.82916 74.82916 135.56008 0 135.56008 C -74.82916 135.56008 -135.56008 74.82916 -135.56008 0 C -135.56008 -74.82916 -74.82916 -135.56008 0 -135.56008 z" stroke-linecap="round" />
</g>
<g transform="matrix(0.8142240117 0 0 0.8142240117 150.5125572199 242.7809744027)" id="flBNkXRsypnkaF9siRVvT"  >
<radialGradient id="SVGID_565" gradientUnits="userSpaceOnUse" gradientTransform="matrix(1 0 0 1 -135.560081101 -135.560081101)"  cx="103.9338663260115" cy="93.50070601250906" r="124.99156808594938" fx="103.9338663260115" fy="93.50070601250906">
<stop offset="0%" style="stop-color:#FFDFAE;stop-opacity: 1"/>
<stop offset="53.58113136108622%" style="stop-color:#FFD289;stop-opacity: 1"/>
<stop offset="100%" style="stop-color:#FFC468;stop-opacity: 1"/>
</radialGradient>
<path style="stroke: rgb(255,139,7); stroke-width: 16; stroke-dasharray: none; stroke-linecap: butt; stroke-dashoffset: 0; stroke-linejoin: miter; stroke-miterlimit: 4; fill: url(#SVGID_565); fill-rule: nonzero; opacity: 1;"  transform=" translate(0, 0)" d="M 0 -135.56008 C 74.82916 -135.56008 135.56008 -74.82916 135.56008 0 C 135.56008 74.82916 74.82916 135.56008 0 135.56008 C -74.82916 135.56008 -135.56008 74.82916 -135.56008 0 C -135.56008 -74.82916 -74.82916 -135.56008 0 -135.56008 z" stroke-linecap="round" />
</g>
</svg>